<?xml version="1.0" standalone="no"?>
<!DOCTYPE svg PUBLIC "-//W3C//DTD SVG 20010904//EN"
 "http://www.w3.org/TR/2001/REC-SVG-20010904/DTD/svg10.dtd">
<svg version="1.0" xmlns="http://www.w3.org/2000/svg"
 width="350.000000pt" height="350.000000pt" viewBox="0 0 350.000000 350.000000"
 preserveAspectRatio="xMidYMid meet">
<metadata>
Created by potrace 1.11, written by Peter Selinger 2001-2013
</metadata>
<g transform="translate(0.000000,350.000000) scale(0.100000,-0.100000)"
fill="#000000" stroke="none">
<path d="M683 3213 l-23 -4 0 -745 0 -744 135 0 135 0 0 744 0 744 -31 6 c-34
7 -180 6 -216 -1z"/>
<path d="M1140 2370 l0 -650 135 0 135 0 0 650 0 650 -135 0 -135 0 0 -650z"/>
<path d="M190 2275 l0 -555 135 0 135 0 0 555 0 555 -135 0 -135 0 0 -555z"/>
<path d="M2090 2210 l0 -490 135 0 135 0 0 490 0 490 -135 0 -135 0 0 -490z"/>
<path d="M2560 2210 l0 -490 135 0 135 0 0 490 0 490 -135 0 -135 0 0 -490z"/>
<path d="M3040 2210 l0 -490 129 0 129 0 6 31 c3 17 6 224 6 459 0 235 -3 442
-6 459 l-6 31 -129 0 -129 0 0 -490z"/>
<path d="M1610 2015 l0 -295 135 0 135 0 0 295 0 295 -135 0 -135 0 0 -295z"/>
<path d="M196 1354 c-8 -20 -8 -1018 0 -1038 6 -14 76 -16 699 -16 623 0 693
2 699 16 8 20 8 1018 0 1038 -6 14 -76 16 -699 16 -623 0 -693 -2 -699 -16z
m1174 -519 l0 -315 -475 0 -475 0 0 315 0 315 475 0 475 0 0 -315z"/>
<path d="M1906 1354 c-8 -20 -8 -1018 0 -1038 6 -14 76 -16 699 -16 623 0 693
2 699 16 8 20 8 1018 0 1038 -6 14 -76 16 -699 16 -623 0 -693 -2 -699 -16z
m1174 -519 l0 -315 -475 0 -475 0 0 315 0 315 475 0 475 0 0 -315z"/>
</g>
</svg>
